<svg width="100" height="191" viewBox="0 0 100 191" fill="none" xmlns="http://www.w3.org/2000/svg">
<path d="M40.0937 34.8093C41.718 34.8633 40.9203 35.0973 42.5024 35.1594C42.6107 35.1634 44.7438 35.3412 44.8621 35.3953C45.0125 35.3312 45.6415 35.1934 45.806 35.1594C46.0714 35.1057 46.2236 35.2664 46.5139 35.3953C46.8828 35.5676 46.5988 35.451 46.9858 35.6313C47.4871 35.6754 47.9204 35.3388 48.4016 35.6313C48.4979 35.6894 48.9106 36.0351 49.0189 36.0291C49.6766 36.0011 50.1658 36.0868 50.7613 36.3392C51.3208 36.2451 51.9098 36.6789 52.4131 36.8112C53.0347 36.9714 53.7053 37.0812 54.3008 37.0471C54.7821 37.2715 55.0776 37.5687 55.4807 37.755C56.0101 37.8933 56.8852 37.7105 57.3684 37.991C58.8269 38.4665 60.0777 38.8577 61.0121 39.3693C61.1905 39.6778 61.4272 40.0164 61.5896 40.3891C61.75 40.7597 61.9846 41.1103 61.9986 41.5411C62.0027 41.6493 62.0548 41.7855 62.133 41.8557C62.5521 42.2283 62.6463 42.7532 62.8388 43.2381C62.9491 43.5166 63.0414 43.7851 63.0494 44.0816C63.0574 44.316 63.0714 44.5524 63.0674 44.7868C63.0474 46.3135 63.0253 47.8402 63.0033 49.3188C62.7506 49.9759 62.3977 50.5009 61.9144 50.9537C61.5194 51.3243 61.0402 51.5367 60.5689 51.7671C60.2982 51.8993 59.8866 52.1229 59.7281 52.3833C59.7382 52.4995 59.676 52.7671 59.7281 52.8553C59.8244 53.0175 60.2756 53.1333 60.4361 53.0912C60.9414 52.963 61.4151 52.8471 61.9144 52.6928C62.137 52.6227 62.5772 52.4615 62.7957 52.3833C63.4093 52.171 64.2283 51.6843 64.6835 51.2035C65.1688 50.6926 65.358 50.3166 65.8633 49.7877C66.2463 49.0944 66.6736 48.239 67.2792 47.6639C67.6601 47.0088 68.0546 46.2835 68.223 45.5402C68.3153 45.1355 68.7471 44.8012 68.695 44.3604C68.6428 43.9276 68.5987 43.8112 68.695 43.4165C68.7371 43.2462 68.8447 42.8529 68.9309 42.7086C69.1555 42.3339 69.0369 41.9598 69.0449 41.5491C69.057 40.8439 69.4109 40.1121 69.4029 39.4068C69.3989 39.0362 69.2274 38.7542 69.3538 38.4316V36.8949C69.2595 36.6886 69.1853 36.5283 69.1031 36.35C69.073 34.8413 69.0429 33.3146 69.0109 31.7318C68.9567 31.3872 68.664 31.0526 68.7001 30.6159C68.7281 30.2673 68.7061 29.9126 68.7061 29.6101C68.5757 29.3476 68.4715 29.1393 68.3451 28.8848V27.843C68.1346 27.3862 67.916 26.9114 67.6553 26.3464V25.0801C67.2784 24.1124 66.5926 23.3311 66.5364 22.3634C66.2076 21.9967 65.9329 21.6902 65.6421 21.3636C65.5418 20.8707 65.3233 20.3959 65.0526 19.8269C64.5533 19.4041 64.1863 18.7009 63.5146 18.3263H61.2226C60.4386 18.779 59.5784 18.4986 58.4454 18.8111C58.5657 18.765 58.3492 18.8492 58.1266 18.9373C57.7757 18.9373 57.4248 18.9353 57.0718 18.9373C56.6588 18.9413 56.2477 18.9473 55.8868 19.1958C55.8507 19.2218 55.7705 19.2198 55.7304 19.1958C55.3153 18.9473 54.9684 19.34 54.5593 19.312C53.8595 19.2619 53.1517 19.32 52.4458 19.324C52.0307 19.326 51.6297 19.3721 51.2507 19.5624C51.1805 19.5985 51.0382 19.4943 50.9299 19.4542C50.5549 19.6346 50.1819 19.7488 49.809 19.4462C49.4099 19.7207 49.035 19.6065 48.6279 19.3541C48.0223 19.338 47.3767 19.32 46.7611 19.302C46.5726 19.2118 46.4142 19.1337 46.1815 19.0215C45.2973 19.1477 44.443 18.6308 43.5106 18.5727C42.9291 18.2261 42.2834 18.2201 41.6357 18.2301C41.4593 18.2321 41.2848 18.2301 41.1384 18.2301C40.6893 18.0197 40.2662 17.8194 39.831 17.615C39.434 17.591 39.0229 17.5669 38.6139 17.5409C38.2289 17.2003 37.7557 17.1903 37.2002 17.1762C36.1294 16.463 34.4795 16.0459 33.0637 15.8099C32.9895 15.6917 33.5247 15.5333 33.649 15.4592C34.7198 14.8141 35.574 13.9485 36.2898 12.9308C36.4904 12.6443 36.741 12.3918 36.9656 12.1213C37.2243 11.8068 37.5371 11.5363 37.7135 11.1496C37.8078 10.9453 37.9903 10.773 38.1547 10.6087C38.8605 9.90142 39.5704 9.20019 40.2862 8.50296C40.6211 8.17839 40.9219 7.82377 41.363 7.60939C41.6177 7.48718 41.8222 7.24675 42.0247 7.03638C42.5962 6.44334 43.29 6.00056 43.9137 5.47363C44.4992 4.97876 45.1609 4.61011 45.7885 4.18537C45.9329 4.08719 46.1013 4.01306 46.2237 3.89285C47.2583 2.88708 48.6279 2.46634 49.8571 1.80117C50.4005 1.76711 50.8477 1.46057 51.3229 1.2522C51.5976 1.13199 51.8663 1.04985 52.1611 1.01979C52.3335 1.00176 52.504 0.955682 52.6704 0.901587C53.1677 0.741305 53.663 0.571005 54.2706 0.366645C55.1468 0.334589 55.672 0.272032 56.6605 0.235969C56.829 0.161838 57.6044 0.235969 57.6044 0.235969C57.8631 0.225951 58.2555 0.237972 58.5483 0.235969C59.7234 0.231962 60.8537 0 61.9906 0C62.2493 0.100176 62.4659 0.184324 62.7305 0.286504C63.3863 0.302532 64.2136 0.447896 64.9195 0.471938C65.501 0.491973 65.9629 0.320564 66.5144 0.609072C66.7069 0.709248 66.9776 0.655153 67.2102 0.687209C67.4408 0.719266 67.6934 0.725276 67.89 0.82946C68.2709 1.03582 68.7679 1.0997 69.1669 1.17984C69.5058 1.24796 69.7247 1.37642 70.0897 1.3644C70.206 1.36039 70.3363 1.3644 70.4366 1.41048C71.0321 1.69098 71.6577 1.80718 72.2312 1.73906C73.3842 2.39021 74.5212 2.83699 75.7063 3.16557C75.8186 3.19763 75.9369 3.21967 76.0351 3.27576C76.9014 3.76663 77.8298 4.13127 78.7121 4.58607C79.1753 4.82449 79.6244 5.10098 80.0475 5.42354C80.4606 5.7381 80.988 5.90239 81.4091 6.21093C81.9344 6.59561 82.528 6.84605 83.1336 7.22271C83.7612 7.81976 84.479 8.42483 84.9603 9.25228C85.0766 9.45063 85.2651 9.6069 85.4295 9.7752C85.8386 10.1979 86.2396 10.6287 86.6667 11.0314C87.2683 11.5984 87.5751 12.3898 88.1967 12.9468C88.8063 13.4957 89.1051 14.3072 89.7006 14.8822C89.7808 14.9603 89.8029 15.0926 89.8691 15.1867C90.1638 15.6195 90.2942 16.1524 90.7193 16.5111C90.8396 16.6132 90.8737 16.8176 90.9519 16.9739C91.2386 17.5489 91.5695 18.1079 91.8041 18.7029C92.0367 19.298 92.2071 19.9191 92.5159 20.4861C92.5701 20.5862 92.6162 20.7064 92.6162 20.8166C92.6162 21.2975 92.8167 21.7222 92.9491 22.171C93.0634 22.5597 93.0533 22.9744 93.2458 23.3551C93.3461 23.5514 93.3361 23.8099 93.3541 24.0423C93.3802 24.3929 93.3882 24.7455 93.4022 25.0581C93.4985 25.2524 93.5747 25.4107 93.687 25.6391C93.7872 27.7408 93.699 29.9146 93.7632 32.0724C93.8314 32.2467 93.8935 32.411 93.9436 32.5413C93.8695 32.7897 93.7612 33.0101 93.7451 33.2365C93.709 33.7634 93.713 34.2923 93.709 34.8213C93.705 35.1839 93.5827 35.5105 93.4163 35.8411C93.3922 36.5904 93.3722 37.3537 93.3421 38.1171C93.316 38.7582 93.4865 39.4394 93.2117 40.0324C92.9591 40.5794 93.1516 41.2225 92.7606 41.7134C92.7265 42.0019 92.6443 42.2944 92.6663 42.5789C92.7225 43.3142 92.3154 43.9253 92.169 44.6045C91.5214 45.9148 90.8556 47.2171 90.234 48.5394C90.0535 48.9241 89.7648 49.2086 89.5382 49.5492C88.0784 51.7471 86.3399 53.4701 85.1147 54.53C84.6756 54.9106 84.1622 55.2031 83.689 55.5337C83.2438 55.694 82.7506 55.5898 82.3275 55.8663C82.147 55.9845 81.8803 55.9945 81.6497 56.0046C81.2366 56.0226 80.8296 56.0486 80.4686 56.279C79.9854 56.285 79.5944 56.5916 79.1332 56.6858C78.7361 56.7679 78.3491 56.9061 77.9701 57.0524C77.4247 57.2628 76.8853 57.4792 76.2818 57.4331C76.1695 57.4251 76.0231 57.4291 75.9409 57.4912C75.4877 57.8378 74.8982 57.6595 74.4269 57.9039C74.1582 58.0441 73.8735 58.1183 73.5807 58.1002C73.2017 58.0762 72.921 58.3286 72.5922 58.4028C71.1143 58.509 69.6445 58.4809 68.1767 58.4388C67.8258 58.4288 67.4849 58.4048 67.152 58.2385C66.9555 58.1403 66.6989 58.1543 66.4683 58.1263C66.2357 58.1002 65.9549 58.1604 65.7745 58.0522C65.1147 57.6575 64.4069 57.7957 63.7131 57.7897C63.1817 57.7857 62.6523 57.8157 62.1791 57.5112C61.7741 57.4611 61.367 57.411 60.8697 57.3509C60.587 57.2067 60.224 57.0224 59.9072 56.8621C59.7949 56.7318 59.6987 56.6517 59.6465 56.5515C59.3778 56.0346 59.1192 55.5117 58.8986 55.0729C58.8023 54.4418 58.9688 53.9429 59.1232 53.4601C59.0289 53.2156 59.0109 53.1934 58.7843 53.0912C58.5697 53.1674 58.2389 53.1515 58.0243 53.1455C57.3546 53.1275 56.8052 53.5442 56.1655 53.6063C55.8727 53.8267 55.5238 53.8808 55.1749 53.9389C54.6435 54.2996 54.1021 54.6482 53.5848 55.0268C53.2098 55.3013 52.8649 55.6159 52.506 55.9124C52.1972 56.5736 51.5896 56.9723 51.1184 57.4912C50.7635 57.8819 49.9203 58.8656 49.5815 59.2282C49.5915 59.3845 50.0454 59.352 50.0534 59.4642C50.268 59.7146 50.8577 59.7211 51.1184 59.8413C51.2771 59.9153 51.8838 59.8572 52.4131 60.1721C52.6397 60.1881 53.3583 60.394 53.5929 60.4081C54.1203 60.4361 54.8669 60.5325 55.3441 60.795C55.752 60.7356 56.3782 60.964 56.6096 60.9513C56.8462 60.9392 57.3999 60.9857 57.6044 61.116C57.8109 61.2502 58.5496 61.3559 58.7843 61.3519C59.5051 61.3412 60.0973 61.958 60.7955 61.9711C61.3176 61.9829 61.7941 62.2654 62.3238 62.2958C62.793 62.3218 63.2062 62.2718 63.7396 62.2958C64.1066 62.4841 64.4883 62.8274 64.9195 63.0037C65.7521 63.3481 66.6066 63.2874 67.2791 63.9476C67.9489 64.6027 68.4798 64.9858 68.9309 65.8353C69.1194 66.192 69.4858 66.6089 69.8748 66.7792C70.328 66.9756 70.79 67.3284 71.0546 67.7231C71.4437 68.3061 71.8314 68.8019 72.2345 69.3749C72.4089 69.6213 72.5059 69.8069 72.6122 70.0793C72.7807 70.5141 72.8508 70.9869 73.0554 71.3977C73.2519 71.7903 73.1877 72.2031 73.302 72.5938C73.3662 72.8141 73.4845 73.0205 73.5647 73.2028V75.1302C73.3181 75.4428 73.1015 75.7173 72.8809 76.0018V77.5525C72.6062 78.1195 72.3495 78.6444 72.0327 79.2996C71.5354 79.7824 70.9459 80.3534 70.4025 80.8783C69.8952 81.0587 69.442 81.1608 69.0229 81.3612C68.4775 81.3151 68.0123 81.6256 67.5009 81.7078C67.0397 81.7819 66.5665 81.7759 66.1334 81.802C65.9409 81.8941 65.7825 81.9703 65.604 82.0544C64.3889 82.1185 63.1557 82.1606 61.9224 82.0304C61.6076 81.8781 61.2848 81.7358 60.976 81.5696C60.5128 81.3191 60.0496 81.0667 59.5543 80.8823C59.1172 80.7201 58.6941 80.5077 58.2449 80.3995C57.2022 80.1511 56.3239 79.554 55.3674 79.1253C54.5974 78.4881 53.661 78.1175 52.8509 77.5365C52.2393 77.0977 51.6277 76.6409 50.9098 76.3604C50.7514 76.2983 50.599 76.1801 50.4867 76.0518C50.0556 75.553 49.444 75.3065 48.9327 74.9178C48.5617 74.6374 48.1447 74.421 47.8358 74.0543C47.7236 73.9221 47.5832 73.7798 47.4268 73.7298C46.8332 73.5374 46.4743 73.0646 46.0652 72.6499C45.4864 72.0608 44.9163 71.3235 44.3548 70.438C44.044 69.9491 43.6249 69.5163 43.5688 68.8993C43.2961 68.5186 43.1657 68.0618 42.8649 67.6891C42.5361 67.2824 42.3315 66.8056 42.2032 66.2766C42.0809 65.7738 41.8062 65.3089 41.5535 64.7199C41.5535 64.0086 41.5575 63.1872 41.5515 62.3658C41.5495 62.1293 41.8022 61.9751 41.738 61.7306C41.6939 61.5623 41.5976 61.4041 41.5716 61.2338C41.4874 60.7048 41.4613 60.1779 41.8002 59.7111C41.8463 59.2923 42.2092 59.0159 42.2814 58.5911C42.3376 58.2565 42.586 58.169 42.7384 57.8124C43.4382 57.5059 44.1542 56.8685 44.2024 56.0126C44.3368 55.6299 44.5934 55.2813 44.6857 54.8926C44.7679 54.544 44.9624 54.2435 45.0245 53.9049C45.0907 53.5502 45.2551 53.2477 45.3735 52.9191C45.4697 52.6527 45.4115 52.3341 45.4737 52.0496C45.5218 51.8272 45.7003 51.6289 45.7304 51.4065C45.7745 51.0619 45.7424 50.7052 45.7424 50.3706C45.1328 49.5332 44.6716 48.9982 44.034 48.6176C43.667 48.3992 43.3382 48.1367 43.1376 47.7961C42.8349 47.2812 42.4017 46.8865 42.0348 46.4157C41.9265 46.0991 41.8262 45.7645 41.6959 45.444C41.5656 45.1174 41.4031 44.8048 41.2467 44.4662C41.3049 43.759 40.8798 43.1439 40.7835 42.4507C40.585 42.1502 40.5509 41.7895 40.4186 41.469C40.3123 41.2065 40.0496 41.0142 39.9052 40.7617C39.7328 40.4592 39.6145 40.1266 39.4801 39.8201C39.4641 39.1549 39.4661 38.5078 39.43 37.8626C39.4019 37.3437 39.4841 36.7927 39.1072 36.344C39.0811 36.0534 39.055 35.7629 39.031 35.4864C39.2355 35.1799 39.424 34.8994 39.6045 34.6269C39.801 34.6991 39.9654 34.7612 40.0877 34.8073L40.0937 34.8093Z" fill="#FFFFFD"/>
<path d="M33.4823 58.0173C33.3824 58.2249 33.3065 58.3826 33.2165 58.5723C33.1905 59.4167 33.1645 60.293 33.1406 61.1374C32.8967 61.7622 32.503 62.2912 32.423 62.9459C32.1092 63.437 31.7934 63.9261 31.4856 64.4211C31.4256 64.5189 31.3977 64.6367 31.3597 64.7305C30.814 65.537 30.0185 66.052 29.243 66.559C28.6614 66.9383 28.0917 67.3475 27.4621 67.6609C27.0484 67.8685 26.6686 68.146 26.2409 68.4115C25.7212 68.5532 25.1056 68.3776 24.5719 68.7109C24.438 68.7948 24.2322 68.7828 24.0603 68.7868C23.4167 68.8008 22.7731 68.8088 22.1295 68.8008C21.9596 68.7988 21.7897 68.7329 21.6238 68.685C21.4599 68.6371 21.3 68.5293 21.1361 68.5253C20.5465 68.5113 19.9768 68.4315 19.4452 68.158C18.5897 68.148 17.8881 67.6949 17.1766 67.3156C16.7229 67.0721 16.3611 66.6549 15.8034 66.6089C15.3717 66.3115 14.918 66.042 14.5163 65.7107C14.0226 65.3014 13.5688 64.8423 13.1031 64.3972C13.0212 64.3193 12.9692 64.2075 12.9073 64.1077C12.8153 63.96 12.7614 63.7384 12.6314 63.6765C12.1158 63.433 11.9898 62.8581 11.5801 62.5287C11.3083 62.3111 11.0764 62.0416 10.8386 61.7841C10.6007 61.5266 10.4128 61.2452 10.2709 60.9138C10.137 60.6004 9.86317 60.3509 9.68928 60.0494C9.31352 59.4007 8.76586 58.8557 8.53601 58.1151C8.48804 57.9614 8.33813 57.8237 8.20821 57.7099C7.7525 57.3167 7.47267 56.8116 7.22483 56.2786C7.00297 55.8055 6.76512 55.3384 6.49529 54.7875V54.0149C6.04957 53.5798 6.20947 53.0188 6.12552 52.5038C5.90966 52.2383 5.69179 51.9688 5.45394 51.6754C5.44795 51.338 5.43995 50.9887 5.43396 50.6394C5.42796 50.29 5.49192 49.9207 5.40198 49.5934C5.28005 49.1522 5.12215 48.717 4.97624 48.2799C4.8843 48.0064 4.7324 47.7589 4.75038 47.4554C4.78037 46.9783 4.62246 46.5512 4.44857 46.108C4.2547 45.611 4.28268 45.076 4.54451 44.5789C4.59648 44.4791 4.62846 44.3673 4.66844 44.2575C4.59048 43.8563 4.37862 43.507 4.20872 43.1417C4.06481 42.8283 3.94889 42.4989 3.83696 42.1715C3.72703 41.8441 3.68305 41.4868 3.52715 41.1874C3.35326 40.854 3.33327 40.5187 3.34127 40.1693C3.34926 39.8579 3.11541 39.6443 3.05745 39.4567C2.98949 39.1113 3.18537 38.9357 3.25532 38.7041C3.17537 38.3827 3.07544 38.0514 3.01148 37.714C2.94752 37.3727 2.99948 36.9874 2.85757 36.688C2.63371 36.2109 2.57975 35.6839 2.31791 35.2168C1.94814 34.558 1.65033 33.8593 1.25858 33.0489C1.15664 32.6756 1.19662 32.1466 1.17863 31.6236C1.16464 31.2184 1.20661 30.8151 0.99874 30.4259C0.896804 30.2343 0.91879 29.9728 0.906797 29.7412C0.872819 29.1583 0.852831 28.5734 0.828846 28.0384C0.728909 27.8328 0.652957 27.6751 0.557017 27.4835C0.467073 26.0582 0.50505 24.597 0.527036 23.1358C0.529035 22.9641 0.533032 22.7645 0.616979 22.6267C0.874817 22.2075 0.824849 21.7225 0.944773 21.2813C1.14465 20.914 1.41648 20.6086 1.74427 20.3551C1.88218 20.2493 2.02809 20.0856 2.178 20.0776C2.70967 20.0437 3.14339 19.6883 3.69305 19.6903C4.62846 19.6943 5.56387 19.6364 6.54726 19.6045C7.04494 19.2791 7.5926 19.2412 8.14625 19.6165C8.37411 19.6325 8.60796 19.6404 8.84181 19.6664C9.30153 19.7183 9.78522 19.6544 10.197 19.9459C10.6587 19.9978 11.1224 20.0497 11.5481 20.0976C11.9778 20.2772 12.1977 20.6405 12.5115 20.936C12.8053 21.0757 13.1191 21.2274 13.4369 21.3791C13.7228 21.4071 14.0146 21.437 14.3524 21.471C14.7261 21.7824 15.1299 22.1157 15.5216 22.4431C15.9474 22.469 16.3551 22.493 16.7349 22.515C17.8622 23.2815 19.0834 23.9003 19.619 25.1659C20.0068 25.3136 20.3906 25.2817 20.5685 25.6809C20.6304 25.8187 20.8203 25.9025 20.9542 26.0063C21.228 26.2219 21.5039 26.4355 21.7397 26.6171C21.9716 27.0862 22.1774 27.5035 22.3673 27.8847C22.6012 28.1762 22.951 28.0584 23.3627 28.3259C23.7245 28.6772 24.2262 29.1643 24.5919 29.5196C24.8038 29.8769 24.9097 30.0825 25.0436 30.2682C25.1076 30.358 25.2175 30.4638 25.3155 30.4738C25.7272 30.5197 26.111 30.6275 26.4508 30.869C27.0524 30.8331 27.4182 31.2264 27.7819 31.6116C28.0218 31.8671 28.2456 32.1386 28.5594 32.4959C28.6774 32.7515 28.8193 33.1347 29.0271 33.4801C29.205 33.7755 29.4589 34.025 29.6168 34.2187C29.6488 35.067 29.6767 35.8256 29.7047 36.5941C29.8946 36.7458 30.0705 36.8876 30.2963 37.0692C30.3383 37.3647 30.3863 37.704 30.4403 38.0773C30.7121 38.253 31.0019 38.4386 31.2577 38.6043C31.4256 38.9556 31.5735 39.271 31.7494 39.6383C31.7494 40.1514 31.8774 40.7402 31.5336 41.2732C31.5795 41.381 31.6255 41.4888 31.6695 41.5966C31.6255 41.7044 31.5835 41.8102 31.5396 41.918C31.4256 42.1995 31.3937 42.4789 31.5536 42.7564C31.6115 42.8582 31.6955 42.96 31.7095 43.0678C31.7734 43.5269 31.7434 44.016 31.8893 44.4452C32.0233 44.8384 32.1372 45.2197 32.1432 45.6309C32.1512 46.098 32.1432 46.5651 32.1432 47.0682C32.2291 47.2558 32.3251 47.4654 32.429 47.695C32.453 48.2559 32.5449 48.8368 32.2131 49.3818C32.1312 49.5155 32.1572 49.7211 32.1552 49.8948C32.1432 50.7711 32.1372 51.6494 32.1332 52.5258C32.1332 52.9909 32.1272 53.456 32.367 53.8872C32.447 54.0289 32.453 54.2265 32.449 54.3982C32.431 55.1188 32.7948 55.7416 32.9467 56.4184C32.9967 56.6419 33.1146 56.8495 33.1865 57.0691C33.2945 57.3965 33.3904 57.7279 33.4783 58.0193L33.4823 58.0173Z" fill="#FFFFFD"/>
<path d="M69.6758 151.588C70.0836 151.891 70.5172 152.152 71.0577 152.194C71.2121 152.206 71.3666 152.334 71.5051 152.431C71.6477 152.529 71.7744 152.653 71.8694 152.734C72.1803 152.908 72.4792 152.848 72.7623 152.894C72.8712 152.932 72.9841 152.958 73.0851 153.011C73.291 153.117 73.5246 153.199 73.6869 153.356C74.1205 153.769 74.6709 153.958 75.2431 154.271H76.4052C77.1417 154.437 77.609 154.803 78.1871 155.07C78.6464 155.519 79.1632 155.993 79.6403 156.507C80.1293 157.03 80.8223 157.245 81.2677 157.721C81.6201 157.771 81.9052 157.811 82.1468 157.845C82.5606 157.923 82.7289 158.295 83.0357 158.445C83.3545 158.6 83.6515 158.774 83.8831 159.043C84.1068 159.304 84.3068 159.587 84.5166 159.86C84.6909 159.894 84.8611 159.926 85.0314 159.958C85.4195 160.151 85.5897 160.534 85.8352 160.918C86.5816 161.267 87.3241 161.71 88.0051 162.25C88.0685 162.473 88.1318 162.694 88.1912 162.901C88.5238 163.161 88.8505 163.4 89.1554 163.665C89.4603 163.932 89.7434 164.225 89.985 164.456C90.2384 164.506 90.4086 164.54 90.5789 164.572C90.6779 164.63 90.7908 164.675 90.8739 164.751C91.1333 164.986 91.3788 165.237 91.6381 165.471C91.8104 165.626 91.9747 165.823 92.1786 165.901C92.6914 166.1 93.0359 166.483 93.3982 166.868C93.7566 167.249 94.0911 167.665 94.5683 167.799C94.6633 168.1 94.7326 168.321 94.8177 168.594C95.4513 168.851 95.8869 169.401 96.3284 169.943C96.4472 170.434 97.053 170.519 97.1876 170.998C97.4648 171.203 97.7439 171.406 98.0073 171.6C98.3478 172.166 98.522 172.807 98.9853 173.274C99.1556 173.447 99.1932 173.682 99.2605 173.908C99.4407 174.522 99.6505 175.129 99.9178 175.953C99.9257 177.314 99.9336 178.902 99.9416 180.399C99.8089 180.7 99.6545 180.906 99.6307 181.125C99.5753 181.655 99.3912 182.145 99.2763 182.654C99.1615 183.166 98.8131 183.604 98.8527 184.166C98.8645 184.322 98.7497 184.495 98.6804 184.653C98.4903 185.081 98.2924 185.502 98.0469 186.036C97.5974 186.498 97.0411 187.017 96.5461 187.591C95.9621 188.27 95.1365 188.605 94.4812 189.175C93.3309 189.717 92.2539 190.421 91.0145 190.758C90.6561 190.997 90.2503 191.013 89.8424 191.005C89.3791 190.995 88.9158 190.977 88.4882 190.963C88.021 190.788 87.6131 190.57 87.1221 190.614C86.544 190.666 85.9639 190.674 85.4313 190.357C85.3383 190.303 85.2037 190.293 85.0908 190.303C84.4929 190.355 83.9663 190.094 83.4099 189.951C83.1407 189.881 82.8872 189.642 82.6061 189.745C82.3527 189.837 82.1785 189.723 81.9627 189.662C81.2895 189.474 80.6401 189.263 80.1471 188.713C80.0402 188.593 79.8502 188.547 79.6918 188.478C78.8939 188.127 78.1594 187.678 77.4407 187.178C76.9121 186.809 76.4211 186.417 75.9756 185.954C75.6133 185.576 75.2371 185.221 74.7857 184.938C74.3482 184.663 74.0116 184.216 73.5662 183.965C73.19 183.752 72.9168 183.517 72.7267 183.13C72.5446 182.757 72.2634 182.446 71.8991 182.247C70.9508 181.731 70.3509 180.854 69.6679 180.064C69.5174 179.889 69.4144 179.634 69.2264 179.534C68.4918 179.136 67.981 178.496 67.4089 177.922C67.195 177.709 66.9535 177.573 66.6803 177.465C66.4566 177.376 66.312 177.188 66.2051 176.973C66.1279 176.816 66.0665 176.646 65.9616 176.509C65.8587 176.375 65.726 176.202 65.5815 176.174C65.0707 176.072 64.8074 175.692 64.5381 175.345C64.3342 174.996 64.4351 174.631 64.3857 174.286C64.2807 174.071 64.1481 173.85 63.9244 173.78C63.3621 173.605 63.1304 173.178 62.8929 172.68C62.7068 172.287 62.7721 171.871 62.6375 171.508C62.4553 171.193 62.1207 171.259 61.8475 171.121C61.604 170.894 61.4773 170.561 61.3387 170.244C61.1902 169.905 60.9764 169.65 60.6655 169.469C60.616 169.439 60.5487 169.431 60.5091 169.393C60.428 169.315 60.329 169.234 60.2913 169.134C60.034 168.464 59.2757 168.151 59.1114 167.418C58.8282 167.099 58.9134 166.629 58.6481 166.292C58.3966 165.973 58.2284 165.588 57.973 165.273C57.5275 164.721 57.2662 164.065 56.9118 163.464C56.8425 162.965 56.4544 162.664 56.1515 162.22C56.1139 161.939 56.0684 161.592 56.0248 161.247C55.8248 160.956 55.6269 160.669 55.4289 160.382C55.4348 159.95 55.1062 159.619 55.0567 159.228C54.9933 158.724 54.7399 158.363 54.4013 157.942C54.3598 157.659 54.334 157.305 54.2469 156.97C54.1736 156.689 54.0489 156.416 53.9044 156.165C53.7915 155.969 53.6114 155.812 53.447 155.622H51.3682C50.7584 155.186 50.307 154.672 50.0298 154C49.8081 153.462 49.4597 152.976 49.4161 152.364C49.1706 152.099 48.935 151.843 48.7073 151.598C48.1747 151.325 47.6818 150.99 47.1373 150.817C46.6404 150.661 46.1513 150.516 45.7019 150.243C45.6841 150.133 45.6683 150.024 45.6465 149.888C45.9296 149.713 46.2206 149.535 46.5572 149.328C46.8007 149.314 47.0878 149.298 47.4778 149.276C48.6321 148.69 49.8695 148.06 51.1287 147.421C52.4294 146.275 53.5896 144.957 54.7815 143.673C55.1358 143.291 55.4209 142.842 55.7239 142.414C56.0941 141.89 56.4604 141.369 56.8583 140.865C57.2167 140.409 57.5235 139.91 57.9116 139.472C57.9888 139.386 58.066 139.291 58.1115 139.185C58.5154 138.208 59.1272 137.349 59.6321 136.43C59.9132 135.918 60.2359 135.432 60.5408 134.934C60.8437 134.439 61.0516 133.883 61.4317 133.431C61.4694 133.387 61.507 133.339 61.5307 133.287C62.1445 131.96 62.9899 130.762 63.6115 129.44C63.7363 129.175 63.9125 128.924 63.9758 128.645C64.1342 127.95 64.5718 127.369 64.7301 126.692C64.8371 126.233 65.0667 125.829 65.1598 125.362C65.2607 124.856 65.534 124.384 65.5359 123.844C65.7933 123.431 65.8191 122.965 65.8745 122.496C65.9062 122.215 66.0428 121.948 66.1398 121.653C65.9735 121.474 65.8171 121.308 65.6666 121.147C65.3003 121.087 64.9618 121.033 64.6411 120.981C64.3916 120.792 64.16 120.617 63.9362 120.449C63.764 120.531 63.6096 120.603 63.4155 120.694C61.0793 120.641 58.7055 120.762 56.3713 120.68C56.2307 120.599 56.1357 120.519 56.0268 120.489C55.419 120.316 54.8211 120.126 54.2667 119.805C53.7658 119.516 53.2451 119.261 52.7323 118.996C52.5779 118.915 52.4156 118.849 52.2789 118.785C51.7681 118.275 51.2712 117.784 50.699 117.214C50.4199 116.304 49.9408 115.371 49.5091 114.44C49.4874 114.125 49.4676 113.832 49.4478 113.537C49.1864 113.081 48.7212 112.772 48.5806 112.228C48.4638 111.779 48.3054 111.341 48.0936 110.671C48.0698 110.031 48.0361 109.15 48.0005 108.205C47.9352 108.118 47.8441 107.966 47.7253 107.843C47.5155 107.627 47.3887 107.386 47.3293 107.081C47.2759 106.802 47.1492 106.537 47.0522 106.266C46.9987 106.117 47.1254 105.923 47.3333 105.905C47.5056 105.891 47.6798 105.879 47.854 105.875C48.3747 105.865 48.8895 105.879 49.3824 105.626C49.5685 105.529 49.8398 105.542 50.0576 105.668C50.602 105.981 51.1881 105.951 51.7345 105.752C52.1285 105.61 52.5066 105.531 52.9165 105.54C53.3223 105.548 53.7222 105.527 54.1004 105.327C54.2449 105.251 54.435 105.257 54.6072 105.244C55.2962 105.192 56.003 105.265 56.6445 104.909C57.2226 104.877 57.8027 104.849 58.3808 104.813C58.8401 104.785 59.2994 104.817 59.739 104.594C59.933 104.496 60.1904 104.508 60.422 104.502C62.3365 104.446 64.249 104.416 66.1635 104.51C66.3912 104.522 66.6328 104.552 66.8387 104.642C67.0287 104.727 67.1634 104.658 67.3198 104.6C67.7375 104.442 68.1157 104.574 68.5196 104.781C69.4699 104.815 70.4539 104.849 71.3963 104.881C71.6497 104.988 71.8595 105.148 72.0734 105.152C72.6059 105.164 73.089 105.317 73.5741 105.517C73.7859 105.604 74.0215 105.632 74.2057 105.786C74.7481 106.24 75.3995 106.507 76.0152 106.818C77.1596 107.392 78.1732 108.167 79.2503 108.843C79.4938 108.995 79.6957 109.218 79.9076 109.417C81.1866 110.615 82.3863 111.893 83.5901 113.17C84.1524 113.766 84.5166 114.512 85.1047 115.082C85.3977 115.654 85.6907 116.224 85.9817 116.798C86.0867 117.007 86.1817 117.22 86.3084 117.491C86.4411 117.99 86.2767 118.606 86.6074 119.142C86.6905 119.279 86.6846 119.483 86.6866 119.658C86.7004 121.364 86.7083 123.07 86.7103 124.776C86.7103 125.129 86.6786 125.478 86.4806 125.793C86.4213 125.887 86.3817 126.016 86.3916 126.124C86.4628 126.909 86.051 127.599 85.9699 128.356C85.9342 128.695 85.7283 129.014 85.6669 129.353C85.5838 129.819 85.2393 130.196 85.2591 130.69C84.8908 131.354 84.675 132.087 84.3682 132.779C84.1088 133.365 83.8277 133.937 83.4594 134.469C82.7981 135.428 82.2398 136.45 81.7132 137.495C81.2677 138.382 80.755 139.227 80.0877 139.976C79.7056 140.405 79.4106 140.921 79.1176 141.423C78.9691 141.676 78.8325 141.929 78.6484 142.157C78.0287 142.926 77.4862 143.761 76.8567 144.517C76.2607 145.236 75.8073 146.063 75.1421 146.723C74.8946 146.97 74.6551 147.239 74.37 147.429C73.2593 148.168 72.2892 149.099 71.1587 149.81C71.0617 149.87 70.9864 149.966 70.9033 150.048C70.6994 150.249 70.6459 150.57 70.3549 150.711C70.149 150.811 69.9629 150.958 69.7807 151.102C69.6302 151.222 69.6243 151.397 69.6758 151.586V151.588Z" fill="#FFFFFD"/>
<path d="M45.5231 126.297C46.3879 127.555 46.971 128.82 47.5804 130.073C47.7131 130.346 47.7372 130.657 47.6206 130.924C47.3169 131.614 46.957 132.279 46.6473 132.967C46.5226 133.242 46.2994 133.437 46.1566 133.686C45.869 134.186 45.5151 134.662 45.5191 135.28C45.5191 135.519 45.3804 135.718 45.3019 135.936C45.137 136.39 44.5174 136.638 44.2922 137.047C44.1876 137.431 44.4332 137.914 44.0813 138.209C43.9526 138.317 43.8641 138.482 43.7756 138.632C43.2105 139.584 42.4785 140.421 41.8551 141.336C41.5615 141.766 41.1614 142.135 40.5721 142.162C40.1056 142.398 39.5948 142.559 39.2268 142.965C38.8668 143.368 38.3842 143.591 37.8553 143.826C37.3727 143.854 36.8438 143.884 36.3149 143.916C35.9168 144.161 35.5286 144.422 35.1204 144.645C34.5051 144.98 33.8756 145.289 33.2985 145.584C32.653 145.655 32.0658 145.707 31.5349 145.357C30.7586 145.367 30.085 144.914 29.3128 144.88C29.0936 144.87 28.8824 144.713 28.6491 144.615C28.257 144.587 27.8468 144.558 27.4426 144.528C27.2756 144.448 27.1168 144.372 26.9479 144.291C26.3848 144.356 25.8861 144.789 25.3552 144.605C24.8444 144.844 24.4221 145.044 24.044 145.221H22.751C22.3226 144.813 21.9044 144.406 21.478 144.006C21.1744 143.721 21.1301 143.26 20.7863 143.005C20.2513 142.178 19.634 141.397 19.2941 140.459C19.2358 140.297 19.1252 140.15 19.087 139.985C19.0347 139.759 19.0307 139.522 19.0045 139.291C18.8839 139.026 18.7974 138.739 18.6365 138.502C18.3952 138.149 18.2886 137.783 18.2927 137.356C18.2927 137.137 18.168 136.916 18.0996 136.701C18.172 136.483 18.2766 136.268 18.3148 136.043C18.3711 135.7 18.3811 135.348 18.4133 135.001C18.723 134.618 18.6225 134.094 18.8698 133.694C18.9965 133.487 19.0629 133.263 19.0488 133.03C19.0226 132.544 19.3625 132.162 19.4108 131.691C19.4329 131.476 19.6098 131.279 19.7084 131.07C19.9517 130.543 20.2513 130.033 20.4122 129.483C20.5791 128.916 20.8305 128.401 21.0939 127.883C21.1704 127.732 21.1462 127.533 21.2146 127.377C21.5142 126.688 21.6409 125.927 22.0773 125.295C22.3146 124.95 22.2241 124.506 22.4735 124.151C22.6705 123.872 22.8294 123.531 22.8877 123.199C22.9601 122.786 23.2115 122.45 23.2758 122.045C23.3563 121.525 23.666 121.087 23.7746 120.568C23.855 120.182 24.1064 119.829 24.2914 119.439C24.4563 118.546 24.4708 117.225 24.4708 116.281C24.6739 116.222 24.7838 116.277 24.9427 116.281C26.0608 116.301 27.1892 116.573 28.3032 116.605C28.4681 116.677 28.629 116.749 28.8201 116.832C28.9649 116.842 29.1378 116.858 29.3148 116.868C29.6667 116.888 30.0226 116.882 30.3705 116.93C30.7164 116.978 31.012 117.183 31.3559 117.273C31.8606 117.402 32.3312 117.651 32.8762 117.627C33.0451 117.619 33.2522 117.637 33.385 117.725C33.8656 118.042 34.4146 117.904 34.9595 118.002C35.8263 118.414 36.7232 118.839 37.7226 119.313C37.9056 119.331 38.1952 119.361 38.4868 119.389C38.5431 119.403 38.6074 119.405 38.6537 119.433C39.5043 119.939 40.4937 120.19 41.2659 120.849C41.6219 121.154 42.0844 121.292 42.5027 121.497C43.1402 121.808 43.7072 122.214 44.204 122.722C44.6625 123.193 44.9802 123.739 45.1672 124.362C45.3663 125.028 45.7001 125.666 45.5231 126.293V126.297Z" fill="#FFFFFD"/>
</svg>
